<svg width="20" height="20" viewBox="0 0 20 20" fill="none" xmlns="http://www.w3.org/2000/svg">
<path d="M20 12.1667C20 12.6667 19 13 17.8333 13.1667C17.0833 11.75 15.5833 10.6667 13.8333 9.91671C14 9.66671 14.1667 9.50004 14.3333 9.25004H15C17.5833 9.16671 20 10.75 20 12.1667ZM5.66667 9.16671H5C2.41667 9.16671 0 10.75 0 12.1667C0 12.6667 1 13 2.16667 13.1667C2.91667 11.75 4.41667 10.6667 6.16667 9.91671L5.66667 9.16671ZM10 10C11.8333 10 13.3333 8.50004 13.3333 6.66671C13.3333 4.83337 11.8333 3.33337 10 3.33337C8.16667 3.33337 6.66667 4.83337 6.66667 6.66671C6.66667 8.50004 8.16667 10 10 10ZM10 10.8334C6.58333 10.8334 3.33333 13 3.33333 15C3.33333 16.6667 10 16.6667 10 16.6667C10 16.6667 16.6667 16.6667 16.6667 15C16.6667 13 13.4167 10.8334 10 10.8334ZM14.75 8.33337H15C16.4167 8.33337 17.5 7.25004 17.5 5.83337C17.5 4.41671 16.4167 3.33337 15 3.33337C14.5833 3.33337 14.25 3.41671 13.9167 3.58337C14.5833 4.41671 15 5.50004 15 6.66671C15 7.25004 14.9167 7.83337 14.75 8.33337ZM5 8.33337H5.25C5.08333 7.83337 5 7.25004 5 6.66671C5 5.50004 5.41667 4.41671 6.08333 3.58337C5.75 3.41671 5.41667 3.33337 5 3.33337C3.58333 3.33337 2.5 4.41671 2.5 5.83337C2.5 7.25004 3.58333 8.33337 5 8.33337Z" fill="white"/>
</svg>
